<svg width="512" height="512" viewBox="0 0 512 512" fill="none" xmlns="http://www.w3.org/2000/svg">
<rect width="512" height="512" fill="#576F35"/>
<path d="M430.763 47.1846H377.303C360.807 47.1846 347.434 60.2893 347.434 76.4557V128.846C347.434 145.012 360.807 158.118 377.303 158.118H430.763C447.259 158.118 460.632 145.012 460.632 128.846V76.4557C460.632 60.2893 447.259 47.1846 430.763 47.1846Z" fill="#FBFBFB"/>
<path d="M132.738 350.2H75.1663C57.4013 350.2 43 363.305 43 379.472V431.862C43 448.029 57.4013 461.133 75.1663 461.133H132.738C150.503 461.133 164.905 448.029 164.905 431.862V379.472C164.905 363.305 150.503 350.2 132.738 350.2Z" fill="#FBFBFB"/>
<path d="M126.328 197.424H72.8684C56.373 197.424 43 210.529 43 226.695V279.086C43 295.252 56.376 308.358 72.8714 308.358H126.328C142.824 308.358 156.197 295.252 156.197 279.086V226.695C156.197 210.529 142.824 197.424 126.328 197.424Z" fill="#FBFBFB"/>
<path d="M279.879 349.376H226.419C209.924 349.376 196.551 362.48 196.551 378.647L196.548 431.037C196.548 447.203 209.927 460.309 226.422 460.309H279.879C296.375 460.309 309.748 447.203 309.748 431.037V378.647C309.748 362.48 296.375 349.376 279.879 349.376Z" fill="#FBFBFB"/>
<path d="M126.328 44.1503H72.8684C56.373 44.1503 43 57.2549 43 73.4213V125.812C43 141.978 56.376 155.084 72.8714 155.084H126.328C142.824 155.084 156.197 141.978 156.197 125.812V73.4213C156.197 57.2549 142.824 44.1503 126.328 44.1503Z" fill="#FBFBFB"/>
<path d="M284.012 198.966H230.552C214.057 198.966 200.684 212.071 200.684 228.237V280.628C200.684 296.794 214.06 309.9 230.555 309.9H284.012C300.508 309.9 313.881 296.794 313.881 280.628V228.237C313.881 212.071 300.508 198.966 284.012 198.966Z" fill="#FBFBFB"/>
<path d="M434.111 349.376H380.652C364.156 349.376 350.783 362.48 350.783 378.647V431.037C350.783 447.203 364.159 460.309 380.655 460.309H434.111C450.607 460.309 463.98 447.203 463.98 431.037V378.647C463.98 362.48 450.607 349.376 434.111 349.376Z" fill="#FBFBFB"/>
<path d="M277.541 45.9828H224.082C207.586 45.9828 194.213 59.0874 194.213 75.2538V127.644C194.213 143.811 207.589 156.916 224.085 156.916H277.541C294.038 156.916 307.411 143.801 307.411 127.634V75.2538C307.411 59.0874 294.038 45.9828 277.541 45.9828Z" fill="#FBFBFB"/>
<path d="M430.25 202.011H376.79C360.295 202.011 346.922 215.116 346.922 231.282V283.672C346.922 299.839 360.298 312.944 376.793 312.944H430.25C446.746 312.944 460.119 299.839 460.119 283.672V231.282C460.119 215.116 446.746 202.011 430.25 202.011Z" fill="#FBFBFB"/>
</svg>
